<svg width="149" height="26" viewBox="0 0 149 26" fill="none" xmlns="http://www.w3.org/2000/svg">
<path d="M5.24 20.24C4.29333 20.24 3.42 20.0667 2.62 19.72C1.83333 19.36 1.18667 18.8533 0.68 18.2L2.48 16.04C2.86667 16.5467 3.27333 16.9333 3.7 17.2C4.12667 17.4533 4.58667 17.58 5.08 17.58C6.4 17.58 7.06 16.8067 7.06 15.26V8.6H2.14V6H10.28V15.08C10.28 16.8133 9.85333 18.1067 9 18.96C8.14667 19.8133 6.89333 20.24 5.24 20.24ZM19.8603 20V17.9L19.6603 17.44V13.68C19.6603 13.0133 19.4536 12.4933 19.0403 12.12C18.6403 11.7467 18.0203 11.56 17.1803 11.56C16.607 11.56 16.0403 11.6533 15.4803 11.84C14.9336 12.0133 14.467 12.2533 14.0803 12.56L12.9603 10.38C13.547 9.96667 14.2536 9.64667 15.0803 9.42C15.907 9.19333 16.747 9.08 17.6003 9.08C19.2403 9.08 20.5136 9.46667 21.4203 10.24C22.327 11.0133 22.7803 12.22 22.7803 13.86V20H19.8603ZM16.5803 20.16C15.7403 20.16 15.0203 20.02 14.4203 19.74C13.8203 19.4467 13.3603 19.0533 13.0403 18.56C12.7203 18.0667 12.5603 17.5133 12.5603 16.9C12.5603 16.26 12.7136 15.7 13.0203 15.22C13.3403 14.74 13.8403 14.3667 14.5203 14.1C15.2003 13.82 16.087 13.68 17.1803 13.68H20.0403V15.5H17.5203C16.787 15.5 16.2803 15.62 16.0003 15.86C15.7336 16.1 15.6003 16.4 15.6003 16.76C15.6003 17.16 15.7536 17.48 16.0603 17.72C16.3803 17.9467 16.8136 18.06 17.3603 18.06C17.8803 18.06 18.347 17.94 18.7603 17.7C19.1736 17.4467 19.4736 17.08 19.6603 16.6L20.1403 18.04C19.9136 18.7333 19.5003 19.26 18.9003 19.62C18.3003 19.98 17.527 20.16 16.5803 20.16ZM39.3841 9.08C40.2374 9.08 40.9907 9.25333 41.6441 9.6C42.3107 9.93333 42.8307 10.4533 43.2041 11.16C43.5907 11.8533 43.7841 12.7467 43.7841 13.84V20H40.6641V14.32C40.6641 13.4533 40.4841 12.8133 40.1241 12.4C39.7641 11.9867 39.2574 11.78 38.6041 11.78C38.1507 11.78 37.7441 11.8867 37.3841 12.1C37.0241 12.3 36.7441 12.6067 36.5441 13.02C36.3441 13.4333 36.2441 13.96 36.2441 14.6V20H33.1241V14.32C33.1241 13.4533 32.9441 12.8133 32.5841 12.4C32.2374 11.9867 31.7374 11.78 31.0841 11.78C30.6307 11.78 30.2241 11.8867 29.8641 12.1C29.5041 12.3 29.2241 12.6067 29.0241 13.02C28.8241 13.4333 28.7241 13.96 28.7241 14.6V20H25.6041V9.24H28.5841V12.18L28.0241 11.32C28.3974 10.5867 28.9241 10.0333 29.6041 9.66C30.2974 9.27333 31.0841 9.08 31.9641 9.08C32.9507 9.08 33.8107 9.33333 34.5441 9.84C35.2907 10.3333 35.7841 11.0933 36.0241 12.12L34.9241 11.82C35.2841 10.98 35.8574 10.3133 36.6441 9.82C37.4441 9.32667 38.3574 9.08 39.3841 9.08ZM51.9988 20.16C50.7721 20.16 49.6921 19.92 48.7588 19.44C47.8388 18.96 47.1254 18.3067 46.6188 17.48C46.1121 16.64 45.8588 15.6867 45.8588 14.62C45.8588 13.54 46.1054 12.5867 46.5988 11.76C47.1054 10.92 47.7921 10.2667 48.6588 9.8C49.5254 9.32 50.5054 9.08 51.5988 9.08C52.6521 9.08 53.5988 9.30667 54.4388 9.76C55.2921 10.2 55.9654 10.84 56.4588 11.68C56.9521 12.5067 57.1988 13.5 57.1988 14.66C57.1988 14.78 57.1921 14.92 57.1788 15.08C57.1654 15.2267 57.1521 15.3667 57.1388 15.5H48.3988V13.68H55.4987L54.2988 14.22C54.2988 13.66 54.1854 13.1733 53.9588 12.76C53.7321 12.3467 53.4188 12.0267 53.0188 11.8C52.6188 11.56 52.1521 11.44 51.6188 11.44C51.0854 11.44 50.6121 11.56 50.1988 11.8C49.7988 12.0267 49.4854 12.3533 49.2588 12.78C49.0321 13.1933 48.9188 13.6867 48.9188 14.26V14.74C48.9188 15.3267 49.0454 15.8467 49.2988 16.3C49.5654 16.74 49.9321 17.08 50.3988 17.32C50.8788 17.5467 51.4388 17.66 52.0788 17.66C52.6521 17.66 53.1521 17.5733 53.5788 17.4C54.0188 17.2267 54.4188 16.9667 54.7788 16.62L56.4388 18.42C55.9454 18.98 55.3254 19.4133 54.5788 19.72C53.8321 20.0133 52.9721 20.16 51.9988 20.16ZM62.8959 20.16C61.9759 20.16 61.0893 20.0533 60.2359 19.84C59.3959 19.6133 58.7293 19.3333 58.2359 19L59.2759 16.76C59.7693 17.0667 60.3493 17.32 61.0159 17.52C61.6959 17.7067 62.3626 17.8 63.0159 17.8C63.7359 17.8 64.2426 17.7133 64.5359 17.54C64.8426 17.3667 64.9959 17.1267 64.9959 16.82C64.9959 16.5667 64.8759 16.38 64.6359 16.26C64.4093 16.1267 64.1026 16.0267 63.7159 15.96C63.3293 15.8933 62.9026 15.8267 62.4359 15.76C61.9826 15.6933 61.5226 15.6067 61.0559 15.5C60.5893 15.38 60.1626 15.2067 59.7759 14.98C59.3893 14.7533 59.0759 14.4467 58.8359 14.06C58.6093 13.6733 58.4959 13.1733 58.4959 12.56C58.4959 11.88 58.6893 11.28 59.0759 10.76C59.4759 10.24 60.0493 9.83333 60.7959 9.54C61.5426 9.23333 62.4359 9.08 63.4759 9.08C64.2093 9.08 64.9559 9.16 65.7159 9.32C66.4759 9.48 67.1093 9.71333 67.6159 10.02L66.5759 12.24C66.0559 11.9333 65.5293 11.7267 64.9959 11.62C64.4759 11.5 63.9693 11.44 63.4759 11.44C62.7826 11.44 62.2759 11.5333 61.9559 11.72C61.6359 11.9067 61.4759 12.1467 61.4759 12.44C61.4759 12.7067 61.5893 12.9067 61.8159 13.04C62.0559 13.1733 62.3693 13.28 62.7559 13.36C63.1426 13.44 63.5626 13.5133 64.0159 13.58C64.4826 13.6333 64.9493 13.72 65.4159 13.84C65.8826 13.96 66.3026 14.1333 66.6759 14.36C67.0626 14.5733 67.3759 14.8733 67.6159 15.26C67.8559 15.6333 67.9759 16.1267 67.9759 16.74C67.9759 17.4067 67.7759 18 67.3759 18.52C66.9759 19.0267 66.3959 19.4267 65.6359 19.72C64.8893 20.0133 63.9759 20.16 62.8959 20.16ZM75.785 20V6H81.845C83.0983 6 84.1783 6.20667 85.085 6.62C85.9917 7.02 86.6917 7.6 87.185 8.36C87.6783 9.12 87.925 10.0267 87.925 11.08C87.925 12.12 87.6783 13.02 87.185 13.78C86.6917 14.5267 85.9917 15.1 85.085 15.5C84.1783 15.9 83.0983 16.1 81.845 16.1H77.585L79.025 14.68V20H75.785ZM84.685 20L81.185 14.92H84.645L88.185 20H84.685ZM79.025 15.04L77.585 13.52H81.665C82.665 13.52 83.4117 13.3067 83.905 12.88C84.3983 12.44 84.645 11.84 84.645 11.08C84.645 10.3067 84.3983 9.70667 83.905 9.28C83.4117 8.85333 82.665 8.64 81.665 8.64H77.585L79.025 7.1V15.04ZM95.612 20.16C94.3854 20.16 93.3054 19.92 92.372 19.44C91.452 18.96 90.7387 18.3067 90.232 17.48C89.7254 16.64 89.472 15.6867 89.472 14.62C89.472 13.54 89.7187 12.5867 90.212 11.76C90.7187 10.92 91.4054 10.2667 92.272 9.8C93.1387 9.32 94.1187 9.08 95.212 9.08C96.2654 9.08 97.212 9.30667 98.052 9.76C98.9054 10.2 99.5787 10.84 100.072 11.68C100.565 12.5067 100.812 13.5 100.812 14.66C100.812 14.78 100.805 14.92 100.792 15.08C100.779 15.2267 100.765 15.3667 100.752 15.5H92.012V13.68H99.112L97.912 14.22C97.912 13.66 97.7987 13.1733 97.572 12.76C97.3454 12.3467 97.032 12.0267 96.632 11.8C96.232 11.56 95.7654 11.44 95.232 11.44C94.6987 11.44 94.2254 11.56 93.812 11.8C93.412 12.0267 93.0987 12.3533 92.872 12.78C92.6454 13.1933 92.532 13.6867 92.532 14.26V14.74C92.532 15.3267 92.6587 15.8467 92.912 16.3C93.1787 16.74 93.5454 17.08 94.012 17.32C94.492 17.5467 95.052 17.66 95.692 17.66C96.2654 17.66 96.7654 17.5733 97.192 17.4C97.632 17.2267 98.032 16.9667 98.392 16.62L100.052 18.42C99.5587 18.98 98.9387 19.4133 98.192 19.72C97.4454 20.0133 96.5854 20.16 95.612 20.16ZM108.229 20.16C107.003 20.16 105.923 19.92 104.989 19.44C104.069 18.96 103.356 18.3067 102.849 17.48C102.343 16.64 102.089 15.6867 102.089 14.62C102.089 13.54 102.336 12.5867 102.829 11.76C103.336 10.92 104.023 10.2667 104.889 9.8C105.756 9.32 106.736 9.08 107.829 9.08C108.883 9.08 109.829 9.30667 110.669 9.76C111.523 10.2 112.196 10.84 112.689 11.68C113.183 12.5067 113.429 13.5 113.429 14.66C113.429 14.78 113.423 14.92 113.409 15.08C113.396 15.2267 113.383 15.3667 113.369 15.5H104.629V13.68H111.729L110.529 14.22C110.529 13.66 110.416 13.1733 110.189 12.76C109.963 12.3467 109.649 12.0267 109.249 11.8C108.849 11.56 108.383 11.44 107.849 11.44C107.316 11.44 106.843 11.56 106.429 11.8C106.029 12.0267 105.716 12.3533 105.489 12.78C105.263 13.1933 105.149 13.6867 105.149 14.26V14.74C105.149 15.3267 105.276 15.8467 105.529 16.3C105.796 16.74 106.163 17.08 106.629 17.32C107.109 17.5467 107.669 17.66 108.309 17.66C108.883 17.66 109.383 17.5733 109.809 17.4C110.249 17.2267 110.649 16.9667 111.009 16.62L112.669 18.42C112.176 18.98 111.556 19.4133 110.809 19.72C110.063 20.0133 109.203 20.16 108.229 20.16ZM118.231 20L113.711 9.24H116.931L120.691 18.5H119.091L122.991 9.24H125.991L121.451 20H118.231ZM132.311 20.16C131.085 20.16 130.005 19.92 129.071 19.44C128.151 18.96 127.438 18.3067 126.931 17.48C126.425 16.64 126.171 15.6867 126.171 14.62C126.171 13.54 126.418 12.5867 126.911 11.76C127.418 10.92 128.105 10.2667 128.971 9.8C129.838 9.32 130.818 9.08 131.911 9.08C132.965 9.08 133.911 9.30667 134.751 9.76C135.605 10.2 136.278 10.84 136.771 11.68C137.265 12.5067 137.511 13.5 137.511 14.66C137.511 14.78 137.505 14.92 137.491 15.08C137.478 15.2267 137.465 15.3667 137.451 15.5H128.711V13.68H135.811L134.611 14.22C134.611 13.66 134.498 13.1733 134.271 12.76C134.045 12.3467 133.731 12.0267 133.331 11.8C132.931 11.56 132.465 11.44 131.931 11.44C131.398 11.44 130.925 11.56 130.511 11.8C130.111 12.0267 129.798 12.3533 129.571 12.78C129.345 13.1933 129.231 13.6867 129.231 14.26V14.74C129.231 15.3267 129.358 15.8467 129.611 16.3C129.878 16.74 130.245 17.08 130.711 17.32C131.191 17.5467 131.751 17.66 132.391 17.66C132.965 17.66 133.465 17.5733 133.891 17.4C134.331 17.2267 134.731 16.9667 135.091 16.62L136.751 18.42C136.258 18.98 135.638 19.4133 134.891 19.72C134.145 20.0133 133.285 20.16 132.311 20.16ZM143.208 20.16C142.288 20.16 141.402 20.0533 140.548 19.84C139.708 19.6133 139.042 19.3333 138.548 19L139.588 16.76C140.082 17.0667 140.662 17.32 141.328 17.52C142.008 17.7067 142.675 17.8 143.328 17.8C144.048 17.8 144.555 17.7133 144.848 17.54C145.155 17.3667 145.308 17.1267 145.308 16.82C145.308 16.5667 145.188 16.38 144.948 16.26C144.722 16.1267 144.415 16.0267 144.028 15.96C143.642 15.8933 143.215 15.8267 142.748 15.76C142.295 15.6933 141.835 15.6067 141.368 15.5C140.902 15.38 140.475 15.2067 140.088 14.98C139.702 14.7533 139.388 14.4467 139.148 14.06C138.922 13.6733 138.808 13.1733 138.808 12.56C138.808 11.88 139.002 11.28 139.388 10.76C139.788 10.24 140.362 9.83333 141.108 9.54C141.855 9.23333 142.748 9.08 143.788 9.08C144.522 9.08 145.268 9.16 146.028 9.32C146.788 9.48 147.422 9.71333 147.928 10.02L146.888 12.24C146.368 11.9333 145.842 11.7267 145.308 11.62C144.788 11.5 144.282 11.44 143.788 11.44C143.095 11.44 142.588 11.5333 142.268 11.72C141.948 11.9067 141.788 12.1467 141.788 12.44C141.788 12.7067 141.902 12.9067 142.128 13.04C142.368 13.1733 142.682 13.28 143.068 13.36C143.455 13.44 143.875 13.5133 144.328 13.58C144.795 13.6333 145.262 13.72 145.728 13.84C146.195 13.96 146.615 14.1333 146.988 14.36C147.375 14.5733 147.688 14.8733 147.928 15.26C148.168 15.6333 148.288 16.1267 148.288 16.74C148.288 17.4067 148.088 18 147.688 18.52C147.288 19.0267 146.708 19.4267 145.948 19.72C145.202 20.0133 144.288 20.16 143.208 20.16Z" fill="black"/>
</svg>
